<svg xmlns="http://www.w3.org/2000/svg" viewBox="0 0 451.28 110.48"><defs><style>.cls-1{fill:#d5d5d8;}.cls-2{fill:#e9e9eb;}.cls-3{fill:#f38120;}.cls-4{fill:#f05f22;}.cls-5{fill:#f1c518;}.cls-6{fill:#e4ac23;}.cls-7{fill:#85c441;}.cls-8{fill:#4a9b45;}.cls-9{fill:#43a7dd;}.cls-10{fill:#2481b2;}.cls-11{fill:#8c73e5;}.cls-12{fill:#6352a2;}.cls-13{fill:#fc6b6b;}.cls-14{fill:#f05b59;}</style></defs><title>logo</title><g id="Calque_2" data-name="Calque 2"><g id="Calque_1-2" data-name="Calque 1"><path class="cls-1" d="M100.12,79.32q0,14.16-9.69,22.62T63.35,110.4H0V4.19L6.12.79H53a72,72,0,0,1,17.91,2,35.73,35.73,0,0,1,12.3,5.42,22.28,22.28,0,0,1,7,8.11,22.81,22.81,0,0,1,2.29,10.2,26,26,0,0,1-2.37,11.11A26.68,26.68,0,0,1,84.18,46a21.88,21.88,0,0,1-7.08,4.63Q88.33,55,94.23,61.81T100.12,79.32ZM59.71,31.42q0-7.67-5.07-10.21T38.84,18.68H32.08V44.16H39q11,0,15.85-2.53T59.71,31.42ZM64.93,75.7Q64.93,62,45.13,62h-13V89.29h13Q64.93,89.29,64.93,75.7Z"/><path class="cls-1" d="M150,107.17H117.89V4.77L123.83,1,150,.79Z"/><path class="cls-1" d="M300.22,110.47H268.55l-.08-64.93L239.54,81.23H237L208,45.54v61.63H176.83V4.77L182.6,1,210,.78l32.65,40L271.46,4.09l6-4h22.64Z"/><path class="cls-2" d="M97.17,80.3q0,13.74-9.4,22t-26.29,8.21H0V4.09H51.42A69.83,69.83,0,0,1,68.81,6a34.68,34.68,0,0,1,11.93,5.26,21.62,21.62,0,0,1,6.75,7.87A22.14,22.14,0,0,1,89.72,29a25.25,25.25,0,0,1-2.3,10.78A25.89,25.89,0,0,1,81.7,48a21.23,21.23,0,0,1-6.87,4.49q10.9,4.3,16.62,10.86T97.17,80.3ZM59.71,34.72q0-7.67-5.07-10.21T38.84,22H32.08V47.46H39q11,0,15.85-2.53T59.71,34.72ZM64.93,79q0-13.66-19.8-13.66h-13V92.58h13Q64.93,92.58,64.93,79Z"/><path class="cls-2" d="M150,110.47H117.89V4.77l32.08,0Z"/><path class="cls-2" d="M294.69,110.47H268.47V48.84L239.54,84.53H237L208,48.84v61.63H176.83V4.77l31.16,0L240.15,44,271.46,4.09l23.23.27Z"/><rect class="cls-3" y="45.87" width="26.14" height="64.6"/><polyline class="cls-4" points="32.08 42.33 26.14 45.92 0 45.88 5.94 42.18 32.08 42.18 32.08 110.47 26.14 110.47 26.14 45.92 22.1 43.74"/><path class="cls-1" d="M208,107.17H176.83V4.77L182.6,1,208,.79Z"/><path class="cls-2" d="M208,110.47H176.83V4.77l31.16,0Z"/><polygon class="cls-1" points="208.54 49.53 208.54 78.64 202.97 78.64 202.97 43.07 208.54 49.53"/><rect class="cls-1" x="26.14" y="21.97" width="5.94" height="20.2"/><rect class="cls-1" x="144.03" y="4.09" width="5.94" height="9.22"/><path class="cls-1" d="M451.28,110.41H419.53l-.08-64.93L390.52,81.17H388L359,45.48v61.63H327.81V4.71L333.59.9,361,.72l32.65,40L422.45,4l6-4H451.2Z"/><path class="cls-2" d="M445.67,110.47l-26.22-.06V48.78L390.52,84.46H388L359,48.78v61.63H327.81V4.71l31.16,0,32.16,39.25L422.45,4l23.23.33Z"/><path class="cls-1" d="M359,107.11H327.81V4.71L333.59.9,359,.73Z"/><path class="cls-2" d="M359,110.41H327.81V4.71l31.16,0Z"/><rect class="cls-5" x="117.89" y="17" width="26.14" height="93.4"/><polyline class="cls-6" points="149.97 13.46 144.03 17.06 117.89 17.02 123.83 13.31 149.97 13.31 149.97 110.4 144.03 110.4 144.03 17.06 139.98 14.88"/><rect class="cls-7" x="176.83" y="82.04" width="26.14" height="28.36"/><polyline class="cls-8" points="208.54 78.78 202.97 82.09 176.83 82.05 182.77 78.64 208.54 78.64 208.54 110.4 202.97 110.4 202.97 82.09 198.93 80.08"/><rect class="cls-9" x="268.48" y="60.94" width="26.14" height="49.52"/><polyline class="cls-10" points="300.19 57.68 294.62 60.99 268.48 60.95 274.42 57.55 300.19 57.54 300.19 110.47 294.62 110.47 294.62 60.99 290.58 58.98"/><rect class="cls-11" x="327.41" y="42.47" width="26.14" height="68"/><polyline class="cls-12" points="359.12 39.21 353.55 42.52 327.42 42.48 333.36 39.07 359.12 39.07 359.12 110.47 353.55 110.47 353.55 42.52 349.51 40.51"/><rect class="cls-13" x="419.53" y="22.9" width="26.14" height="87.57"/><polyline class="cls-14" points="451.24 19.64 445.68 22.95 419.54 22.91 425.48 19.51 451.24 19.5 451.24 110.48 445.67 110.48 445.68 22.95 441.63 20.95"/></g></g></svg>