<svg xmlns="http://www.w3.org/2000/svg" viewBox="0 0 164.31 164.31"><defs><style>.cls-1{fill:#f1c518;}.cls-2{fill:#e4ac23;}.cls-3,.cls-6,.cls-7{fill:none;}.cls-3,.cls-4,.cls-5,.cls-6,.cls-7{stroke:#000;stroke-miterlimit:10;}.cls-3{stroke-width:1.5px;}.cls-5{stroke-width:0.75px;}.cls-6{stroke-width:2px;}.cls-7{stroke-linecap:round;stroke-width:3px;}</style></defs><title>picto-organisation</title><g id="Calque_2" data-name="Calque 2"><g id="Calque_1-2" data-name="Calque 1"><rect class="cls-1" width="164.31" height="164.31" rx="6.57" ry="6.57"/><path class="cls-2" d="M0,70.62v87.11a6.57,6.57,0,0,0,6.57,6.57H157.74a6.57,6.57,0,0,0,6.57-6.57V122.05Z"/><circle class="cls-3" cx="81.73" cy="36.31" r="10.03"/><path class="cls-4" d="M74.81,47.61c-4.53.14-9.6,4-9.88,7.82-.53,7.42-1.55,12.23-.14,13.44C78,80.11,96.34,72.57,99.31,68c.52-2.61.5-6-.47-13a12.74,12.74,0,0,0-9.09-7.41c-2.7,11-5.81,23.86-8.37,25.37C78.87,71.33,75.86,54.56,74.81,47.61Z"/><path class="cls-5" d="M79.28,48.32a11.71,11.71,0,0,0,5.07,0c1.12-.27-2.06,3.06-2.33,3.77.47,2.71,1.61,6,1.93,7.36-.58,2.1-1.83,6.54-2.22,6.54s-1.41-4.52-1.87-6.57c.29-1.09.69-3.77,1.35-7.3C80.14,50.65,78,48,79.28,48.32Z"/><circle class="cls-6" cx="81.86" cy="48.79" r="26.45"/><path class="cls-4" d="M118.64,116.82c-3.36.1-7.13,3-7.34,5.81-.39,5.52-1.16,9.09-.1,10,9.78,8.36,23.43,2.75,25.64-.61.39-1.94.38-4.45-.35-9.68a9.47,9.47,0,0,0-6.75-5.5c-2,8.19-4.31,17.73-6.22,18.85C121.65,134.45,119.42,122,118.64,116.82Z"/><path class="cls-5" d="M122,117.35a8.69,8.69,0,0,0,3.76,0c.83-.2-1.53,2.28-1.73,2.81.35,2,1.2,4.45,1.43,5.46-.43,1.56-1.36,4.86-1.65,4.86s-1-3.36-1.39-4.88c.22-.81.51-2.8,1-5.43C122.6,119.08,121,117.1,122,117.35Z"/><circle class="cls-3" cx="123.88" cy="108.48" r="7.45"/><circle class="cls-6" cx="123.98" cy="117.75" r="19.65"/><path class="cls-4" d="M34.49,116.82c-3.36.1-7.13,3-7.34,5.81-.39,5.52-1.16,9.09-.1,10,9.78,8.36,23.44,2.75,25.65-.61.39-1.94.37-4.45-.35-9.68a9.46,9.46,0,0,0-6.75-5.5c-2,8.19-4.31,17.73-6.21,18.85C37.51,134.45,35.27,122,34.49,116.82Z"/><path class="cls-5" d="M37.81,117.35a8.69,8.69,0,0,0,3.76,0c.83-.2-1.53,2.28-1.73,2.81.35,2,1.2,4.45,1.43,5.46-.43,1.56-1.36,4.86-1.65,4.86s-1-3.36-1.39-4.88c.22-.81.51-2.8,1-5.43C38.45,119.08,36.83,117.1,37.81,117.35Z"/><circle class="cls-3" cx="39.63" cy="108.48" r="7.45"/><circle class="cls-6" cx="39.73" cy="117.75" r="19.65"/><polyline class="cls-7" points="71.77 105.47 81.58 96.53 81.58 84.95"/><line class="cls-7" x1="91.54" y1="105.47" x2="81.58" y2="96.53"/></g></g></svg>