<svg xmlns="http://www.w3.org/2000/svg" viewBox="0 0 164.31 164.32"><defs><style>.cls-1{fill:#f16b6c;}.cls-2,.cls-8,.cls-9{fill:#dc5454;}.cls-14,.cls-15,.cls-3{fill:#010101;}.cls-10,.cls-13,.cls-4,.cls-7{fill:#f05c59;}.cls-10,.cls-14,.cls-15,.cls-4,.cls-5,.cls-6,.cls-7,.cls-8,.cls-9{stroke:#010101;}.cls-10,.cls-12,.cls-13,.cls-4,.cls-5,.cls-6,.cls-7,.cls-8,.cls-9{stroke-linecap:round;stroke-linejoin:round;}.cls-12,.cls-13,.cls-15,.cls-4,.cls-9{stroke-width:1.75px;}.cls-12,.cls-5{fill:#f16b6d;}.cls-5,.cls-6,.cls-7,.cls-8{stroke-width:2px;}.cls-6{fill:none;}.cls-10{stroke-width:0.75px;}.cls-11{fill:#181818;}.cls-12,.cls-13{stroke:#181818;}.cls-14,.cls-15{stroke-miterlimit:10;}</style></defs><title>picto-strategie</title><g id="Calque_2" data-name="Calque 2"><g id="Calque_1-2" data-name="Calque 1"><rect class="cls-1" width="164.31" height="164.31" rx="6.57" ry="6.57"/><path class="cls-2" d="M0,70.62v87.11a6.57,6.57,0,0,0,6.57,6.57H157.74a6.57,6.57,0,0,0,6.57-6.57V122.05Z"/><path class="cls-3" d="M84.85,99.66a2.7,2.7,0,1,1,2.7-2.7A2.7,2.7,0,0,1,84.85,99.66Z"/><path class="cls-4" d="M84.85,94.27V90.76"/><rect class="cls-5" x="50.26" y="24.91" width="69.38" height="59.39"/><rect class="cls-3" x="48.04" y="84.2" width="73.82" height="6.02" rx="1.56" ry="1.56"/><path class="cls-5" d="M99.85,37.91a3.4,3.4,0,1,1,3.4-3.4A3.4,3.4,0,0,1,99.85,37.91Z"/><path class="cls-5" d="M72.64,76.32a3.4,3.4,0,1,1,3.4-3.4A3.4,3.4,0,0,1,72.64,76.32Z"/><path class="cls-6" d="M99.85,45.68v2.59c0,5.33-6.8,6.6-13.38,7.83-8.1,1.52-13.83,3-13.83,7.71"/><path class="cls-6" d="M96.4,47.95l2.53-2.53a1.29,1.29,0,0,1,1.83,0l2.53,2.53"/><rect class="cls-3" x="48.04" y="18.89" width="73.82" height="6.02" rx="1.56" ry="1.56"/><line class="cls-7" x1="72.64" y1="40.13" x2="79.46" y2="46.95"/><line class="cls-7" x1="79.46" y1="40.13" x2="72.64" y2="46.95"/><line class="cls-7" x1="97.72" y1="58.24" x2="104.54" y2="65.06"/><line class="cls-7" x1="104.54" y1="58.24" x2="97.72" y2="65.06"/><line class="cls-7" x1="85.76" y1="69.51" x2="92.58" y2="76.33"/><line class="cls-7" x1="92.58" y1="69.51" x2="85.76" y2="76.33"/><path class="cls-8" d="M132.71,163.29H114.84l-.06-8.16-4.12,1.23a9.09,9.09,0,0,1-4.58-.23s-2.13-1.66-1.15-5.5c0,0,.9-2.45.69-3.44,0,0,.36-1.05,3.66-2.06a7,7,0,0,1,1.46-.69s-8.68-.35-9-.69c0,0-.5-3.17.46-4.12l5,.23a13.06,13.06,0,0,1,3.46-.51,3.63,3.63,0,0,1,1.58-.18l2.52-.65a2.69,2.69,0,0,1,.8-1.32,28.6,28.6,0,0,1,2.3-4,5.93,5.93,0,0,1,1.34-3s1-.79.6-5.16c0,0,.46-.27.46.69l1.11,3.86a14.15,14.15,0,0,1,6.47-4.15l5.39-1.8a11.58,11.58,0,0,0,6,7.89S141.47,132.37,132.71,163.29Z"/><path class="cls-3" d="M120.28,125.68c0-1-.46-.69-.46-.69,3.9-1.91,12.14-3.76,12.14-3.76,1.11-.48,1.08.09,1.08.09a10.41,10.41,0,0,0,.2,2.25l-5.39,1.8a14.77,14.77,0,0,0-6.47,4.14Z"/><path class="cls-9" d="M94.16,144l.46-.92v-.2a1,1,0,0,1,.86.13s1.12.58,4.14.14l2-.22s-.27-2.17.47-3.23a22.07,22.07,0,0,1-2.48,0l-4.84-1.35s-.9-.48-1.38.21L91.15,140s-.45.21-.6,1.1l-.28.19-.68,2.39s0,.85.85.22a.94.94,0,0,0,.93.36s.49.62,1-.17c0,0,.92.54.92-.28A1,1,0,0,0,94.16,144Z"/><line class="cls-10" x1="91.3" y1="142.6" x2="91.58" y2="141.76"/><path class="cls-3" d="M116.7,102.28a16.22,16.22,0,0,1,1.41-1.8,11.35,11.35,0,0,1,8.51-2.64,10.78,10.78,0,0,1,9.32,6.67s2.46-.66,2.58,1.2c0,0,.6,1.56-.36,1.92,0,0,7.39.84,4.09,14.12,0,0-1.74,4.21-.12,7.93a4.49,4.49,0,0,1-2.1-1.8s1.64,3.61,3.07,4c0,0-1.09,1.56-4.82-1,0,0-6.79-4.09-4.93-12.14,0,0,.36-1.26-1.32.18C132,118.94,114.18,105.19,116.7,102.28Z"/><path class="cls-11" d="M132,118.94l-14.65-16.66s-.27,3.18,7.39,8.12"/><path class="cls-9" d="M123.86,123.43l7.54-2.09-.08-.84.72-1.56s-1.72.38-1.79-5a4,4,0,0,0,1-4.09s-.43-2.13-2.12-1.53c0,0-1.48.24-1,3.38,0,0-1.49.75-3.3-1.34,0,0-3.62-3.49-4.65-3.86a3.52,3.52,0,0,1-1.95-2.22s-.21-.36-.41-.8a3.4,3.4,0,0,1-.38-1.24,11.51,11.51,0,0,0-.67,6.09l-1,.36h.73s-.06,1.75-2.46,3.6c0,0-1.76.95,1.32,2.19l0,.46s-1.71.88-.55,1.27c0,0,.49.42-.17.63,0,0-.77.58.62,1,0,0,.68,0-.08.61,0,0-.94,2.09,1.09,2.6h5.32S123.31,121,123.86,123.43Z"/><path class="cls-12" d="M131.26,112.29a4,4,0,0,0-.06-2.4s-.43-2.13-2.12-1.53c0,0-1.48.24-1,3.38,0,0-1.49.75-3.3-1.34,0,0-3.62-3.49-4.65-3.86a3.52,3.52,0,0,1-1.95-2.22s-.21-.36-.41-.8a3.4,3.4,0,0,1-.38-1.24,11,11,0,0,0-.79,4.79"/><polygon class="cls-11" points="124.72 108.1 128.33 109 128.08 111.74 125.7 111.74 124.72 108.1"/><path class="cls-13" d="M58.7,122.43A7.55,7.55,0,0,0,60.3,120c.28-1.07-.09-1.16,0-1.52a4.4,4.4,0,0,1,.87-1.11s2.28-1.33.41-2.36l-.78.76-.68.4a7.54,7.54,0,0,1-2,.84c-.68.4-1.5.58-1.69,1.29a8.69,8.69,0,0,0-.55,2.14c-.32.49-2.27,2.7-2.27,2.7s1.51,2.7,3.27,3.34a9.2,9.2,0,0,0,3.4-2.86,6.64,6.64,0,0,0,1.92-4.46,5.12,5.12,0,0,0-.63-2.05s-.33,3.52-1.19,4.64C59.7,123.06,58.7,122.43,58.7,122.43Z"/><path class="cls-14" d="M63.76,111.64l-2.12,9.66a.43.43,0,0,1-.54.27l-.68-.14a.42.42,0,0,1-.38-.46l2.12-9.67,1.69-4.05Z"/><path class="cls-13" d="M60.2,121.86a.91.91,0,0,0,.45,1.25c.86.4,2.09-.62,2.19-1a3.67,3.67,0,0,0,0-.94s.78-.76.5-1.2l-.27-.45a2,2,0,0,0,.5-1.2c0-.58-.77-.76-.77-.76l-.14-.22s1.14-.67.73-1.34a1.16,1.16,0,0,0-1-.63s-1.14,2.18-.05,2.45l.14.22a3.19,3.19,0,0,1-1,.89l-.91.53c-.23.13-.64,1,.32,1s.73.18.73.18-.32.49-.68.4a.5.5,0,0,0-.68.4C59.93,121.41,60.2,121.86,60.2,121.86Z"/><path class="cls-9" d="M30.66,112.27l.25-1.17s.92.42,2.45-2c0,0,1.51-1.3.86-4.31a1.85,1.85,0,0,1,1.8-1.65s2-.32,1.26,2.31l-.44,2.94,1.64.17s.23-6.67,3.34-7.71c0,0,4.54-1.87,5.4-1.87,0,0,1.64,4.53.17,5.59,0,0-.38.19.1.81l1.42,2.86s.78,1.27-1,1.22l-1.28-.14-.2.89s1.05.88-.44,1.16c0,0-.36.33-.11.51,0,0,.83.88-.56,1a.47.47,0,0,0-.1.64s1.13,2.06-.47,2.32l-5-.75s-.9-.14-1,1.65l-.41,1.76s-6.8-3.89-7.7-6.26"/><path class="cls-3" d="M31.11,110.94s-1.64-.74-.86-1.9c0,0-.05-4.78-1.11-7,0,0-1.62-4.09,2.79-7,0,0,3.54-3.16,11.58-.66l4.56.69s1.52,2.79-.87,3.91l-3.77,1.24c-2.63.87-3.69,2-4.33,5.1l-.63,3.24-1.64-.17.51-3.38c.44-3.05-3.08-1.85-3.12-.22a16.73,16.73,0,0,1,.1,2.61c-.2,1-.38.83-1.26,2.13C31.81,111.39,31.11,110.94,31.11,110.94Z"/><path class="cls-3" d="M39.3,117.45,38.86,119l1.9.58a23.12,23.12,0,0,0-.62,2.71,11.65,11.65,0,0,1-.7,3.39s6,8.2,6.37,10.64.92,5.81.92,5.81.41-7.11-.66-10.75c-1.33-3.9-3.45-6.5-4-8.84C41.3,120.23,40.9,117.71,39.3,117.45Z"/><path class="cls-8" d="M46.73,146v4.26s-.32,12-.8,13.1H23.12s-2.65-12.84-4-17.52A66.73,66.73,0,0,1,17.82,131c.53-1.82,1.06-2.6,2.12-5.72,1.06-3.38,1.33-2.08,3.71-5.46a19.15,19.15,0,0,1,4.24-4.94l.53-.52,1.33-1.56a17,17,0,0,0,4,6c2.92,2.86,10.08,12.74,11.67,15.61s1.33,10.4,1.33,10.4Z"/><path class="cls-3" d="M34.19,140.53c.27-4.42-1.33-9.1-3.45-11.44s-6.1-2.6-9.28.78-1.86,8.84-1.86,8.84,2.92,7.54,3.45,10.14c.27,2.6,3.71,7.8,7.69,10.14,2.39,1.3,4.65,3.54,7.56,4.33H44.8C33.52,149.9,33.92,143.13,34.19,140.53Z"/><path class="cls-3" d="M39.44,125.72a83.24,83.24,0,0,0-5.71-7,17,17,0,0,1-4-6l.53-1s2.39,4.16,11,8.06Z"/><path class="cls-15" d="M46.92,141.57s-.11-9.23-.84-10.16c-.32-.41,1-.67,1.55-1.29A5.16,5.16,0,0,1,49.08,129c.32-.49.09-.36.73-1.34S52.87,124,52.87,124c.18,2.32,5.31,5.68,5.31,5.68a53,53,0,0,0-5.38,5.88,81.81,81.81,0,0,1-5.88,6"/><path class="cls-13" d="M52.87,124"/><path class="cls-9" d="M57.14,126.26c.22-.14,2.81-1.72,3.51-3.15,0,0,1.15.49,2.19-1l0-.94s.78-.76.5-1.2l-.27-.45a2.41,2.41,0,0,0,.5-1.2.92.92,0,0,0-.77-.76l-.14-.22s1.95-1.3-.27-2l-.2.39a.9.9,0,0,0-.67-.8l-.78.76A11.3,11.3,0,0,1,58.17,117s-1.63.64-1.69,1.29a8.19,8.19,0,0,0-.55,2.14L53.84,123S56.32,126.11,57.14,126.26Z"/><path class="cls-9" d="M52.87,124l1.18-1.48s2.49,3.37,4.68,3.91L57,128.88S53,126,52.87,124Z"/></g></g></svg>