<svg xmlns="http://www.w3.org/2000/svg" viewBox="0 0 164.31 164.31"><defs><style>.cls-1,.cls-10,.cls-13{fill:#f38120;}.cls-2{fill:#f05f22;}.cls-3,.cls-4,.cls-5,.cls-7,.cls-8{fill:none;}.cls-3,.cls-7{stroke:#020202;}.cls-10,.cls-11,.cls-13,.cls-3,.cls-4,.cls-5,.cls-6,.cls-7,.cls-8{stroke-miterlimit:10;}.cls-10,.cls-11,.cls-3,.cls-4,.cls-5,.cls-6,.cls-7,.cls-8{stroke-width:3px;}.cls-10,.cls-11,.cls-4,.cls-5,.cls-6{stroke:#000;}.cls-5,.cls-7,.cls-8{stroke-linecap:round;}.cls-8{stroke:#f05d22;}.cls-9{fill:#f05d22;}.cls-11{fill:#2c4b99;}.cls-12{fill:#020202;}.cls-13{stroke:#f38120;}</style></defs><title>picto-offre</title><g id="Calque_2" data-name="Calque 2"><g id="Calque_1-2" data-name="Calque 1"><rect class="cls-1" width="164.31" height="164.31" rx="6.57" ry="6.57"/><path class="cls-2" d="M0,70.62v87.11a6.57,6.57,0,0,0,6.57,6.57H157.74a6.57,6.57,0,0,0,6.57-6.57V122.05Z"/><rect class="cls-3" x="57.79" y="21.6" width="69.05" height="54.09"/><rect class="cls-1" x="62.81" y="26.01" width="58.2" height="44.78" rx="2.83" ry="2.83"/><rect class="cls-4" x="62.81" y="26.01" width="58.2" height="44.78" rx="2.83" ry="2.83"/><path class="cls-5" d="M69.77,37.68c.1,5.12,0,23.56,0,23.56"/><path class="cls-5" d="M75.57,37.68c.1,5.12,0,23.56,0,23.56"/><circle class="cls-4" cx="100.56" cy="48.35" r="12.75"/><circle class="cls-4" cx="100.06" cy="48.29" r="3.32"/><path class="cls-4" d="M60.14,75.69V80h9.68v-4.3"/><polyline class="cls-4" points="113.92 75.69 113.92 80 123.3 80 123.3 75.69"/><line class="cls-5" x1="118.33" y1="32.23" x2="122.48" y2="32.23"/><line class="cls-5" x1="118.33" y1="35.6" x2="122.48" y2="35.6"/><line class="cls-5" x1="118.64" y1="61.11" x2="122.79" y2="61.11"/><line class="cls-5" x1="118.64" y1="64.68" x2="122.79" y2="64.68"/><line class="cls-5" x1="100.06" y1="58.69" x2="100.06" y2="61.25"/><line class="cls-5" x1="100.16" y1="35.7" x2="100.16" y2="37.93"/><line class="cls-5" x1="107.48" y1="55.73" x2="109.21" y2="57.61"/><line class="cls-5" x1="92.89" y1="55.63" x2="91.42" y2="57.27"/><line class="cls-5" x1="107.48" y1="41.12" x2="109.21" y2="39.24"/><line class="cls-5" x1="92.89" y1="41.22" x2="91.42" y2="39.59"/><line class="cls-5" x1="110.38" y1="48.28" x2="112.94" y2="48.29"/><line class="cls-5" x1="87.8" y1="48.27" x2="89.93" y2="48.28"/><path class="cls-6" d="M23.2,107.35c-.28,11.3.58,35.36.58,40,6.36-2,26.43-12.76,29.85-17.39-1.71-6.39-9.73-25.3-13.62-29.59A83.75,83.75,0,0,0,23.2,107.35Z"/><path class="cls-5" d="M42.49,104c6.51-2.45,14.63-8.82,22.74-8.24s35.94,8.69,36.81,13.33,0,9.56-5.22,9.27-18.26-5.51-19.42-6.09"/><path class="cls-7" d="M53.63,126.95c3.77-1.34,13.91-4.09,16.52-1.85s20.58,8.58,24.75,8.55c5.21,0,42.36-16.38,45.33-19.22,4.05-3.87,0-10.83-4.06-10.83-3.2,0-30.08,13.32-33.85,11.87"/><path class="cls-8" d="M22.39,133.11c3.24-1.16,8.46-3.77,8.46-3.77"/><circle class="cls-9" cx="39.45" cy="125.1" r="1.84"/><polyline class="cls-10" points="38.87 68.39 38.87 62.77 85.98 62.77 85.98 84.17 80 84.17"/><rect class="cls-10" x="33.14" y="68.39" width="48.54" height="21.4"/><path class="cls-11" d="M33.14,71.38a2.88,2.88,0,0,0,3.35-3H33.14Z"/><path class="cls-11" d="M38.87,65.76a2.88,2.88,0,0,0,3.35-3H38.87Z"/><path class="cls-11" d="M33.56,86.8a2.88,2.88,0,0,1,3.35,3H33.56Z"/><path class="cls-11" d="M81.68,86.51a2.88,2.88,0,0,0-3.35,3h3.35Z"/><path class="cls-11" d="M86,81.18a2.88,2.88,0,0,0-3.35,3H86Z"/><path class="cls-11" d="M81.28,71.38a2.88,2.88,0,0,1-3.35-3h3.35Z"/><path class="cls-11" d="M86,65.76a2.88,2.88,0,0,1-3.35-3H86Z"/><path class="cls-12" d="M58.37,85.49a6.12,6.12,0,0,1-3.45-1,5.76,5.76,0,0,1-2.2-2.75H50l.54-1.56h1.81a5.35,5.35,0,0,1,0-.63q0-.37,0-.69H50.49L51,77.31h1.4a6.42,6.42,0,0,1,.82-1.93,5.65,5.65,0,0,1,3-2.36,6.47,6.47,0,0,1,2.05-.32,9.67,9.67,0,0,1,1.83.17,6.8,6.8,0,0,1,1.63.52l-.27,2.08A12.67,12.67,0,0,0,60,74.92a6.19,6.19,0,0,0-1.67-.21,3.41,3.41,0,0,0-2.23.69,3.81,3.81,0,0,0-1.21,1.9h4.86l-.58,1.57H54.68v.33c0,.13,0,.25,0,.38s0,.24,0,.36a1.1,1.1,0,0,0,.06.27h4.63l-.54,1.56H55.28a3.31,3.31,0,0,0,3.09,1.71A6.14,6.14,0,0,0,60,83.26a12.43,12.43,0,0,0,1.52-.54l.27,2.08a6.69,6.69,0,0,1-1.63.52A9.58,9.58,0,0,1,58.37,85.49Z"/><polygon class="cls-9" points="33.14 78.42 33.14 89.79 69.46 89.79 33.14 78.42"/><rect class="cls-4" x="33.14" y="68.39" width="48.54" height="21.4"/><path class="cls-6" d="M119.17,55.68c2.25.79,15.21,5.67,17.38,6.49a3.13,3.13,0,0,1,1.65,3.57C135.28,74.22,127,97.25,126,99.81c-.83,2.22-1.76,3.56-4.42,2.45s-16.32-6-17.54-6.46a3.3,3.3,0,0,1-1.4-3.83c.67-1.78,12.28-32.86,12.92-34.57A2.81,2.81,0,0,1,119.17,55.68Z"/><rect class="cls-13" x="107" y="67.08" width="28.33" height="20.17" transform="translate(6.5 163.69) rotate(-69.53)"/><rect class="cls-13" x="126.89" y="55.73" width="1.48" height="9.28" transform="translate(26.45 158.84) rotate(-69.54)"/><circle class="cls-13" cx="114.67" cy="94.69" r="2.11" transform="translate(-14.13 169.03) rotate(-69.54)"/></g></g></svg>