<svg xmlns="http://www.w3.org/2000/svg" viewBox="0 0 164.31 164.31"><defs><style>.cls-1{fill:#42a6dd;}.cls-2{fill:#2680b1;}.cls-12,.cls-3,.cls-5,.cls-7{fill:#6bbfeb;}.cls-3{stroke:#181818;}.cls-11,.cls-12,.cls-3,.cls-5,.cls-7,.cls-8{stroke-linejoin:round;}.cls-11,.cls-3,.cls-5,.cls-9{stroke-width:1.75px;}.cls-11,.cls-4,.cls-6,.cls-9{fill:#010101;}.cls-10,.cls-11,.cls-12,.cls-5,.cls-7,.cls-8,.cls-9{stroke:#010101;}.cls-6{stroke:#181718;}.cls-10,.cls-6,.cls-9{stroke-miterlimit:10;}.cls-10,.cls-12,.cls-7,.cls-8{stroke-width:2px;}.cls-8{fill:#2881b2;}.cls-10{fill:none;}.cls-12{stroke-linecap:round;}</style></defs><title>picto-tech-inno</title><g id="Calque_2" data-name="Calque 2"><g id="Calque_1-2" data-name="Calque 1"><rect class="cls-1" width="164.31" height="164.31" rx="6.57" ry="6.57"/><path class="cls-2" d="M0,70.62v87.11a6.57,6.57,0,0,0,6.57,6.57H157.74a6.57,6.57,0,0,0,6.57-6.57V122.05Z"/><circle class="cls-3" cx="136.02" cy="81.03" r="1.24"/><circle class="cls-3" cx="136.02" cy="104.52" r="1.24"/><circle class="cls-3" cx="136.02" cy="128" r="1.24"/><path class="cls-4" d="M62.61,93.28,59.86,104.1l-9.26,7.77v1.66H93.46v-1.66L84.2,104.1,81.44,93.28,72,93.14Z"/><path class="cls-4" d="M50.6,112.11v3.15H93.46v-3.15Z"/><path class="cls-4" d="M24.21,18.52h95.64a5.73,5.73,0,0,1,5.71,5.71V83.15H18.5V24.24a5.73,5.73,0,0,1,5.71-5.71Z"/><path class="cls-5" d="M22.38,79.27h99.3v-55a1.85,1.85,0,0,0-1.83-1.83H24.21a1.85,1.85,0,0,0-1.83,1.83v55Z"/><path class="cls-4" d="M125.56,83.15V89.4c0,3.14-2.83,5.71-6.3,5.71H24.79c-3.46,0-6.3-2.57-6.3-5.71V83.15Z"/><circle class="cls-6" cx="71.75" cy="52.14" r="7.34"/><circle class="cls-7" cx="46.77" cy="50.29" r="5.4"/><circle class="cls-7" cx="83.57" cy="41.65" r="3.31"/><circle class="cls-7" cx="56.56" cy="34.62" r="3.31"/><circle class="cls-7" cx="89.64" cy="60.12" r="3.31"/><circle class="cls-7" cx="68.41" cy="70.65" r="3.31"/><circle class="cls-7" cx="93.78" cy="45.79" r="4.14"/><line class="cls-7" x1="52.21" y1="50.58" x2="64.41" y2="51.09"/><line class="cls-7" x1="58.7" y1="36.94" x2="67" y2="46.35"/><line class="cls-7" x1="81.05" y1="43.92" x2="77.13" y2="47.38"/><line class="cls-7" x1="90.15" y1="46.98" x2="79.02" y2="49.93"/><line class="cls-7" x1="69" y1="67.49" x2="69.9" y2="59.36"/><line class="cls-7" x1="86.88" y1="58.62" x2="78.7" y2="55"/><path class="cls-7" d="M140.21,96.27H77.44A4.46,4.46,0,0,1,73,91.81V77.25a4.46,4.46,0,0,1,4.46-4.46h62.77a4.46,4.46,0,0,1,4.46,4.46V91.81A4.46,4.46,0,0,1,140.21,96.27Z"/><path class="cls-8" d="M140.21,119.76H77.44A4.46,4.46,0,0,1,73,115.3V100.73a4.46,4.46,0,0,1,4.46-4.46h62.77a4.46,4.46,0,0,1,4.46,4.46V115.3A4.46,4.46,0,0,1,140.21,119.76Z"/><path class="cls-8" d="M140.21,143.24H77.44A4.46,4.46,0,0,1,73,138.78V124.22a4.46,4.46,0,0,1,4.46-4.46h62.77a4.46,4.46,0,0,1,4.46,4.46v14.56A4.46,4.46,0,0,1,140.21,143.24Z"/><circle class="cls-9" cx="133.55" cy="82.68" r="1.24"/><circle class="cls-9" cx="128.61" cy="87.14" r="1.24"/><circle class="cls-9" cx="123.66" cy="82.68" r="1.24"/><circle class="cls-9" cx="113.77" cy="82.68" r="1.24"/><circle class="cls-9" cx="118.72" cy="87.14" r="1.24"/><circle class="cls-10" cx="84.73" cy="108.02" r="4.33"/><circle class="cls-10" cx="84.73" cy="131.5" r="4.33"/><circle class="cls-11" cx="133.55" cy="129.65" r="1.24"/><circle class="cls-11" cx="128.61" cy="134.11" r="1.24"/><circle class="cls-11" cx="123.66" cy="129.65" r="1.24"/><circle class="cls-9" cx="113.77" cy="129.65" r="1.24"/><circle class="cls-11" cx="118.72" cy="134.11" r="1.24"/><path class="cls-8" d="M82.15,96.27H77.44A4.46,4.46,0,0,1,73,91.81"/><circle class="cls-10" cx="84.73" cy="84.53" r="4.33"/><path class="cls-2" d="M139.72,132.4a8.73,8.73,0,0,0-8.6-8.74,8.55,8.55,0,0,0-7.4,4.36,5.16,5.16,0,0,0-1.64-.27A5.33,5.33,0,0,0,116.9,132a6.61,6.61,0,0,0-3.66,5.94,6.51,6.51,0,0,0,6.4,6.59h19a6.15,6.15,0,0,0,1.1-12.15Z"/><path class="cls-4" d="M138.62,145.78h-19A7.73,7.73,0,0,1,112,138a7.9,7.9,0,0,1,3.83-6.76,6.59,6.59,0,0,1,6.23-4.69,6.32,6.32,0,0,1,1.09.09,9.8,9.8,0,0,1,8-4.18,10,10,0,0,1,9.78,9,7.38,7.38,0,0,1-2.27,14.34ZM133,143.32h5.58a4.92,4.92,0,0,0,.86-9.72l-1-.19v-1a7.53,7.53,0,0,0-7.37-7.53,7.27,7.27,0,0,0-6.34,3.74l-.5.87-1-.32a3.91,3.91,0,0,0-1.25-.21,4.13,4.13,0,0,0-4,3.31l-.13.58-.53.26a5.41,5.41,0,0,0-3,4.84,5.27,5.27,0,0,0,5.17,5.36Z"/><path class="cls-12" d="M82.15,96.27h58.06a4.46,4.46,0,0,1,4.46,4.46V115.3a4.5,4.5,0,0,1,0,.59"/><circle class="cls-9" cx="133.55" cy="106.16" r="1.24"/><circle class="cls-9" cx="128.61" cy="110.62" r="1.24"/><circle class="cls-9" cx="123.66" cy="106.16" r="1.24"/><circle class="cls-9" cx="113.77" cy="106.16" r="1.24"/><circle class="cls-9" cx="118.72" cy="110.62" r="1.24"/></g></g></svg>