<svg xmlns="http://www.w3.org/2000/svg" viewBox="0 0 164.31 164.31"><defs><style>.cls-1{fill:#7f73b4;}.cls-2{fill:#6352a2;}.cls-10,.cls-11,.cls-3,.cls-4,.cls-5,.cls-8,.cls-9{fill:none;}.cls-10,.cls-12,.cls-13,.cls-3,.cls-4,.cls-5,.cls-7,.cls-8,.cls-9{stroke:#181818;}.cls-10,.cls-11,.cls-3,.cls-5,.cls-7,.cls-8,.cls-9{stroke-linecap:round;}.cls-10,.cls-11,.cls-12,.cls-13,.cls-3,.cls-4,.cls-5,.cls-7,.cls-8,.cls-9{stroke-linejoin:round;}.cls-12,.cls-3,.cls-7{stroke-width:1.75px;}.cls-13,.cls-4,.cls-5{stroke-width:2px;}.cls-6{fill:#181818;}.cls-12,.cls-13,.cls-7{fill:#6553a2;}.cls-9{stroke-width:0.75px;}.cls-10,.cls-11{stroke-width:0.5px;}.cls-11{stroke:#f1662c;}</style></defs><title>picto-environnement</title><g id="Calque_2" data-name="Calque 2"><g id="Calque_1-2" data-name="Calque 1"><rect class="cls-1" width="164.31" height="164.31" rx="6.57" ry="6.57"/><path class="cls-2" d="M0,70.62v87.11a6.57,6.57,0,0,0,6.57,6.57H157.74a6.57,6.57,0,0,0,6.57-6.57V122.05Z"/><path class="cls-3" d="M81.14,69.58V55"/><polyline class="cls-3" points="29.16 103.55 29.16 89.33 43.57 89.33"/><polyline class="cls-3" points="132.92 103.55 132.92 89.33 118.51 89.33"/><path class="cls-4" d="M100.76,94.16q0,.39,0,.78A19.54,19.54,0,0,1,96,107q-.51.6-1.08,1.15A19.56,19.56,0,0,1,82,113.77l-.84,0-.84,0a19.56,19.56,0,0,1-12.94-5.63q-.56-.55-1.08-1.15a19.54,19.54,0,0,1-4.75-12q0-.39,0-.78t0-.78a19.54,19.54,0,0,1,4.75-12q.52-.6,1.08-1.15A19.56,19.56,0,0,1,80.3,74.56l.84,0,.84,0a19.56,19.56,0,0,1,12.94,5.63q.56.55,1.08,1.15a19.54,19.54,0,0,1,4.75,12Q100.76,93.77,100.76,94.16Z"/><ellipse class="cls-4" cx="81.14" cy="94.16" rx="16.97" ry="19.62"/><line class="cls-5" x1="95.76" y1="94.16" x2="100.63" y2="94.16"/><line class="cls-4" x1="81.14" y1="113.79" x2="81.14" y2="74.54"/><path class="cls-4" d="M81.14,75.43s-8.24-.7-11.09,12.81a29.26,29.26,0,0,0,.2,13.46c1.29,4.9,4.21,10.54,10.87,11.37"/><path class="cls-4" d="M81.13,75.35s8.24-.7,11.09,12.81a29.26,29.26,0,0,1-.2,13.46c-1.29,4.9-4.21,10.54-10.87,11.37"/><line class="cls-5" x1="61.51" y1="94.16" x2="90.52" y2="94.16"/><path class="cls-5" d="M66.84,80.72a28.39,28.39,0,0,0,28.61,0"/><path class="cls-5" d="M66.83,107.5a28.39,28.39,0,0,1,28.61,0"/><path class="cls-6" d="M41.61,35.15V22.31s4.14-.14,4.28,1.13c0,0-.23,5.53-.71,8.86a5.52,5.52,0,0,1-.67,2.43Z"/><path class="cls-3" d="M44.24,23.61l3.5.34c.32.32-.32,8.36-.32,8.36H44.24"/><path class="cls-7" d="M51.91,34.69a3.58,3.58,0,0,1-2.5-3.59h-1.9"/><path class="cls-7" d="M59.67,27.23a8.21,8.21,0,0,1,3.54,2.59v.31"/><path class="cls-3" d="M55.95,36.06a2,2,0,0,1-3.16.11A3.09,3.09,0,0,1,52,34.53c-.44-2.46,1.55-2.44,1.55-2.44s-.17,3.76,3.56,4.17"/><path class="cls-7" d="M53.52,32.09a1.65,1.65,0,0,1,2.68-.31"/><polyline class="cls-6" points="56.63 33.56 58.24 31.56 57.07 30.66 55.56 32.11 56.63 33.56"/><path class="cls-3" d="M58.24,31.18l-2.46,3.61s16.34,2.7,18,3.9c0,0,4.52-5.2,4-7.29,0,0-13.8-1.3-16.18-1.44"/><polyline class="cls-3" points="63.82 36.23 70.96 39.89 73.15 38.41"/><polyline class="cls-3" points="57.63 35.11 56.9 36.9 65.26 36.97"/><path class="cls-3" d="M71.1,30.79h7.18s.14,2.7-2.29,7.9l-2-.35"/><ellipse class="cls-8" cx="66.21" cy="33.45" rx="2.1" ry="0.97" transform="translate(-6.55 47.9) rotate(-38.04)"/><path class="cls-6" d="M76.08,24.16l2.51,3.06a6.87,6.87,0,0,1,8-1.37l-1.12,1.47,4.28-.64-1.23-4.15-1.21,2S83,19.59,76.08,24.16Z"/><path class="cls-6" d="M83.3,46.87,80.79,43.8a6.87,6.87,0,0,1-8,1.37l1.12-1.47-4.28.64,1.23,4.15,1.21-2S76.39,51.44,83.3,46.87Z"/><path class="cls-7" d="M55.16,30.44s-.16.2.78,1.12l.85-.9Z"/><path class="cls-6" d="M120.65,29.57V16.73s-4.14-.14-4.28,1.13c0,0,.23,5.53.71,8.86a5.52,5.52,0,0,0,.67,2.43Z"/><path class="cls-3" d="M117.74,18.16l-3.22.2c-.32.32.32,8.36.32,8.36h3.3"/><path class="cls-3" d="M114.43,19.31s-7.29,0-7.71.21c0,0-4.5,1.5-4.71,3a10.78,10.78,0,0,1-4.15,4.15s-1.1,1.64,2.4,1.43c0,0,3.38-1.38,4-3a22.18,22.18,0,0,0,5.71-1"/><path class="cls-7" d="M98.77,24.78s2.74-3.12,4-3.26"/><path class="cls-3" d="M105.63,26.72s2.67-2.52,3.21.62c0,0,.85-2,1.5.6v1.18a3.58,3.58,0,0,0,2.5-3.59h1.9"/><polygon class="cls-7" points="104.39 26.72 106.06 24.99 107.99 24.78 105.8 26.95 104.39 26.72"/><path class="cls-3" d="M109.15,29.11h1.2S104.12,41,102.74,42.56c0,0-10.13.25-17.52-2.09l1.55-2.05"/><path class="cls-3" d="M47.83,24.89s7.29,0,7.71.21c0,0,4.5,1.5,4.71,3A10.78,10.78,0,0,0,64.4,32.3s1.1,1.64-2.4,1.43c0,0-3.38-1.38-4-3a22.18,22.18,0,0,1-5.71-1"/><path class="cls-3" d="M99.79,25.29c-.71,0-4-2.14-4-2.14s-12,13.8-12,14.42c0,0,11.18,3.51,16.9,3.2,0,0,8.67-11.51,9-12.84,0,0-6.75-1.35-6.57-1.51"/><line class="cls-9" x1="69.29" y1="32.79" x2="71.31" y2="33.89"/><line class="cls-9" x1="68.89" y1="33.52" x2="70.91" y2="34.62"/><path class="cls-9" d="M71.75,35.58a1.55,1.55,0,0,1-1.68.2,1.85,1.85,0,0,1,1.74-3.2,1.48,1.48,0,0,1,.74,1.16,1.88,1.88,0,0,1,0,.37"/><ellipse class="cls-9" cx="96.38" cy="33.59" rx="1.64" ry="1.86" transform="translate(20.48 101.83) rotate(-61.17)"/><path class="cls-9" d="M99.48,31.48a1.58,1.58,0,0,0-.83-1.93A1.56,1.56,0,0,0,96.5,30a1.49,1.49,0,0,0,.5,1.85s1.09.88,1.13,1.51"/><path class="cls-9" d="M93.31,35.74a1.59,1.59,0,0,0,.85,1.89,1.56,1.56,0,0,0,2.14-.43,1.49,1.49,0,0,0-.5-1.85,3,3,0,0,1-.7-.67l-.33-.5"/><path class="cls-6" d="M114.87,147.58h20.52l-.31-.64s-8.22-2.88-8.58-4.54c-.13-1.49,0-2.8-.08-3.88l-.35-20,13.4-3.7-.4-2a28.37,28.37,0,0,1-8.62.33s-3.43-.17-4.48,3l-2.49-5.47.72,5.75s-3.81-2.1-7.9,1.44c0,0-3.43,2.38-5.08,2.49l.88,2.1,12.55-3.48s-.78,11-.4,21.6c0,.66.11,1.31.18,2,.1.91-9.35,4.55-9.35,4.55Z"/><line class="cls-3" x1="112.91" y1="121.48" x2="106.76" y2="137.78"/><line class="cls-3" x1="112.91" y1="121.48" x2="119.06" y2="137.78"/><path class="cls-6" d="M105.63,137.78h14.71S113,147.19,105.63,137.78Z"/><line class="cls-3" x1="138.63" y1="114.91" x2="132.47" y2="131.21"/><line class="cls-3" x1="138.63" y1="114.91" x2="144.78" y2="131.21"/><path class="cls-6" d="M131.35,131.21h14.71S138.72,140.62,131.35,131.21Z"/><line class="cls-10" x1="110.42" y1="132.75" x2="113.28" y2="132.75"/><line class="cls-10" x1="110.42" y1="133.79" x2="113.28" y2="133.79"/><path class="cls-10" d="M114.77,134.35a1.93,1.93,0,0,1-1.72,1.22,2.3,2.3,0,0,1,0-4.54,1.84,1.84,0,0,1,1.49.83,2.34,2.34,0,0,1,.23.4"/><path class="cls-11" d="M139.2,125"/><path class="cls-11" d="M138.17,127.57"/><ellipse class="cls-10" cx="138.61" cy="126.3" rx="1.38" ry="1.09"/><path class="cls-10" d="M139.86,124.07a1.16,1.16,0,0,0-1.23-.86,1.12,1.12,0,0,0-1.24.94,1.05,1.05,0,0,0,1,.93s1,.16,1.28.52"/><path class="cls-10" d="M137.38,128.56a1.17,1.17,0,0,0,1.23.84,1.12,1.12,0,0,0,1.24-.94,1.05,1.05,0,0,0-1-.93,2.44,2.44,0,0,1-.69-.17l-.4-.19"/><path id="_Tracé_" data-name="&lt;Tracé&gt;" class="cls-12" d="M32.26,65.08"/><path id="_Tracé_2" data-name="&lt;Tracé&gt;" class="cls-13" d="M19.37,138.7c0-2.1,4.62-3.54,10.32-3.54S40,136.6,40,138.7s-4.62,4.05-10.32,4.05-10.32-2-10.32-4.05"/><path id="_Tracé_3" data-name="&lt;Tracé&gt;" class="cls-13" d="M29.69,142.75c-5.7,0-10.32-2-10.32-4.14v4.83c0,2.1,4.62,4.15,10.32,4.15s10.31-2,10.32-4.15v-4.83c0,2.1-4.62,4.14-10.32,4.14"/><path id="_Tracé_4" data-name="&lt;Tracé&gt;" class="cls-13" d="M21.75,146v-4.83"/><path id="_Tracé_5" data-name="&lt;Tracé&gt;" class="cls-13" d="M21.75,141.18"/><path id="_Tracé_6" data-name="&lt;Tracé&gt;" class="cls-13" d="M25.32,147.16v-4.83"/><path id="_Tracé_7" data-name="&lt;Tracé&gt;" class="cls-13" d="M29.69,147.16v-4.83"/><path id="_Tracé_8" data-name="&lt;Tracé&gt;" class="cls-13" d="M34.05,147.58v-4.83"/><path id="_Tracé_9" data-name="&lt;Tracé&gt;" class="cls-13" d="M38,146.19v-4.83"/><path id="_Tracé_10" data-name="&lt;Tracé&gt;" class="cls-13" d="M21.6,131.1c0-2.1,4.62-3.54,10.32-3.54S42.23,129,42.23,131.1s-4.62,4.05-10.32,4.05-10.32-2-10.32-4.05"/><path id="_Tracé_11" data-name="&lt;Tracé&gt;" class="cls-13" d="M31.92,135.15c-5.7,0-10.32-2-10.32-4.14v4.83c0,2.1,4.62,4.15,10.32,4.15s10.31-2,10.32-4.15V131c0,2.1-4.62,4.14-10.32,4.14"/><path id="_Tracé_12" data-name="&lt;Tracé&gt;" class="cls-13" d="M24,138.41v-4.83"/><path id="_Tracé_13" data-name="&lt;Tracé&gt;" class="cls-13" d="M24,133.58"/><path id="_Tracé_14" data-name="&lt;Tracé&gt;" class="cls-13" d="M27.55,139.56v-4.83"/><path id="_Tracé_15" data-name="&lt;Tracé&gt;" class="cls-13" d="M31.92,139.56v-4.83"/><path id="_Tracé_16" data-name="&lt;Tracé&gt;" class="cls-13" d="M36.28,140v-4.83"/><path id="_Tracé_17" data-name="&lt;Tracé&gt;" class="cls-13" d="M40.25,138.59v-4.83"/><path id="_Tracé_18" data-name="&lt;Tracé&gt;" class="cls-13" d="M18.25,123.5c0-2.1,4.62-3.54,10.32-3.54s10.32,1.44,10.32,3.54-4.62,4.05-10.32,4.05-10.32-2-10.32-4.05"/><path id="_Tracé_19" data-name="&lt;Tracé&gt;" class="cls-13" d="M28.57,127.56c-5.7,0-10.32-2-10.32-4.14v4.83c0,2.1,4.62,4.15,10.32,4.15s10.31-2,10.32-4.15v-4.83c0,2.1-4.62,4.14-10.32,4.14"/><path id="_Tracé_20" data-name="&lt;Tracé&gt;" class="cls-13" d="M20.63,130.81V126"/><path id="_Tracé_21" data-name="&lt;Tracé&gt;" class="cls-13" d="M20.63,126"/><path id="_Tracé_22" data-name="&lt;Tracé&gt;" class="cls-13" d="M24.2,132v-4.83"/><path id="_Tracé_23" data-name="&lt;Tracé&gt;" class="cls-13" d="M28.57,132v-4.83"/><path id="_Tracé_24" data-name="&lt;Tracé&gt;" class="cls-13" d="M32.93,132.39v-4.83"/><path id="_Tracé_25" data-name="&lt;Tracé&gt;" class="cls-13" d="M36.9,131v-4.83"/><path id="_Tracé_26" data-name="&lt;Tracé&gt;" class="cls-13" d="M21.6,115.22c0-2.1,4.62-3.54,10.32-3.54s10.32,1.44,10.32,3.54-4.62,4.05-10.32,4.05-10.32-2-10.32-4.05"/><path id="_Tracé_27" data-name="&lt;Tracé&gt;" class="cls-13" d="M31.92,119.27c-5.7,0-10.32-2-10.32-4.14V120c0,2.1,4.62,4.15,10.32,4.15s10.31-2,10.32-4.15v-4.83c0,2.1-4.62,4.14-10.32,4.14"/><path id="_Tracé_28" data-name="&lt;Tracé&gt;" class="cls-13" d="M24,122.53v-4.83"/><path id="_Tracé_29" data-name="&lt;Tracé&gt;" class="cls-13" d="M24,117.69"/><path id="_Tracé_30" data-name="&lt;Tracé&gt;" class="cls-13" d="M27.55,123.68v-4.83"/><path id="_Tracé_31" data-name="&lt;Tracé&gt;" class="cls-13" d="M31.92,123.68v-4.83"/><path id="_Tracé_32" data-name="&lt;Tracé&gt;" class="cls-13" d="M36.28,124.1v-4.83"/><path id="_Tracé_33" data-name="&lt;Tracé&gt;" class="cls-13" d="M40.25,122.71v-4.83"/></g></g></svg>